<svg width="42" height="42" viewBox="0 0 42 42" fill="none" xmlns="http://www.w3.org/2000/svg">
<circle cx="21" cy="21" r="21" fill="#D9D9D9"/>
<path d="M21 4.42078C11.6075 4.42078 4 12.0325 4 21.4208C4 28.9334 8.8705 35.3041 15.6237 37.5495C16.4737 37.7096 16.7854 37.184 16.7854 36.7321C16.7854 36.3284 16.7712 35.2588 16.7642 33.8421C12.0353 34.8678 11.038 31.5613 11.038 31.5613C10.2645 29.5992 9.14675 29.075 9.14675 29.075C7.60683 28.021 9.26575 28.0423 9.26575 28.0423C10.9728 28.1613 11.8696 29.7933 11.8696 29.7933C13.3854 32.3929 15.849 31.642 16.8208 31.2071C16.9738 30.1078 17.4116 29.3584 17.8975 28.9334C14.1221 28.5084 10.154 27.0464 10.154 20.5325C10.154 18.6767 10.8127 17.1609 11.9036 15.9709C11.7123 15.5416 11.1386 13.8133 12.0523 11.4715C12.0523 11.4715 13.4761 11.0154 16.7273 13.214C18.0873 12.8358 19.5323 12.6488 20.9773 12.6403C22.4223 12.6488 23.8673 12.8358 25.2273 13.214C28.4573 11.0154 29.8811 11.4715 29.8811 11.4715C30.7948 13.8133 30.2211 15.5416 30.0511 15.9709C31.1348 17.1609 31.7936 18.6767 31.7936 20.5325C31.7936 27.0634 27.8198 28.5013 24.0373 28.9192C24.6323 29.4292 25.1848 30.4719 25.1848 32.0642C25.1848 34.3394 25.1636 36.1669 25.1636 36.7194C25.1636 37.1656 25.4611 37.6969 26.3323 37.5269C33.1337 35.297 38 28.922 38 21.4208C38 12.0325 30.3882 4.42078 21 4.42078Z" fill="black"/>
</svg>
