<svg width="42" height="42" viewBox="0 0 42 42" fill="none" xmlns="http://www.w3.org/2000/svg">
<circle cx="21" cy="21" r="21" fill="#D9D9D9"/>
<path d="M33 14.457V28.366C33 29.27 32.268 30.002 31.364 30.002H27.545V20.73L21 25.64L14.455 20.73V30.003H10.636C10.4211 30.003 10.2083 29.9606 10.0097 29.8783C9.81115 29.7961 9.63075 29.6755 9.47882 29.5234C9.32689 29.3714 9.2064 29.1909 9.12425 28.9923C9.04209 28.7937 8.99987 28.5809 9 28.366V14.457C9 12.434 11.309 11.279 12.927 12.493L14.455 13.64L21 18.548L27.545 13.638L29.073 12.493C30.69 11.28 33 12.434 33 14.457Z" fill="black"/>
</svg>
