<svg width="48" height="30" viewBox="0 0 48 30" fill="none" xmlns="http://www.w3.org/2000/svg">
<circle cx="33.5" cy="14.5" r="6.78571" fill="#FF5B5B"/>
<path d="M40.1932 21.4504L37.9227 20.842L39.5848 19.1798L40.1932 21.4504Z" fill="#FF5B5B"/>
<path d="M33.5 5L34.6753 7.03571H32.3247L33.5 5Z" fill="#FF5B5B"/>
<path d="M43 14.5L40.9643 15.6753L40.9643 13.3247L43 14.5Z" fill="#FF5B5B"/>
<path d="M24 14.5L26.0357 13.3247L26.0357 15.6753L24 14.5Z" fill="#FF5B5B"/>
<path d="M26.3168 7.31678L28.5873 7.92517L26.9252 9.58733L26.3168 7.31678Z" fill="#FF5B5B"/>
<path d="M40.1932 7.31679L39.5848 9.58734L37.9227 7.92518L40.1932 7.31679Z" fill="#FF5B5B"/>
<path d="M26.3168 21.4504L26.9252 19.1798L28.5873 20.842L26.3168 21.4504Z" fill="#FF5B5B"/>
<path d="M33.5 24L32.3247 21.9643L34.6753 21.9643L33.5 24Z" fill="#FF5B5B"/>
<path d="M11.7758 15C11.8731 16.0581 11.7758 17.6734 14.896 19.5C17.1108 20.7965 20.786 20.4843 19.8506 21.4286C18.2749 23.0192 16.1168 24 13.7364 24C8.91142 24 5 19.9706 5 15C5 10.0294 8.91142 5.99999 13.7364 5.99999C15.079 5.93495 15.5727 6.26228 16 6.5C16.3411 6.74224 17.0898 7.42985 17.0217 7.53775C17.0198 7.67493 16.4194 7.66905 15 8.49999C13 9.99999 11.5 12 11.7758 15Z" fill="#FFCD1C"/>
</svg>
