<svg width="48" height="30" viewBox="0 0 48 30" fill="none" xmlns="http://www.w3.org/2000/svg">
<circle cx="36" cy="15" r="5" fill="#FF5B5B"/>
<path d="M40.9318 20.1213L39.2588 19.673L40.4836 18.4483L40.9318 20.1213Z" fill="#FF5B5B"/>
<path d="M36 8L36.866 9.5H35.134L36 8Z" fill="#FF5B5B"/>
<path d="M43 15L41.5 15.866L41.5 14.134L43 15Z" fill="#FF5B5B"/>
<path d="M29 15L30.5 14.134L30.5 15.866L29 15Z" fill="#FF5B5B"/>
<path d="M30.7071 9.70711L32.3801 10.1554L31.1554 11.3801L30.7071 9.70711Z" fill="#FF5B5B"/>
<path d="M40.9318 9.70711L40.4836 11.3801L39.2588 10.1554L40.9318 9.70711Z" fill="#FF5B5B"/>
<path d="M30.7071 20.1213L31.1554 18.4483L32.3801 19.673L30.7071 20.1213Z" fill="#FF5B5B"/>
<path d="M36 22L35.134 20.5L36.866 20.5L36 22Z" fill="#FF5B5B"/>
<path d="M11.7758 15C11.8731 16.0581 11.7758 17.6734 14.896 19.5C17.1108 20.7965 20.786 20.4843 19.8506 21.4286C18.2749 23.0192 16.1168 24 13.7364 24C8.91142 24 5 19.9706 5 15C5 10.0294 8.91142 5.99999 13.7364 5.99999C15.079 5.93495 15.5727 6.26228 16 6.5C16.3411 6.74224 17.0898 7.42985 17.0217 7.53775C17.0198 7.67493 16.4194 7.66905 15 8.49999C13 9.99999 11.5 12 11.7758 15Z" fill="#FFCD1C"/>
</svg>
